<svg width="65" height="65" viewBox="0 0 65 65" fill="none" xmlns="http://www.w3.org/2000/svg">
<path d="M61.2561 24.0856L62.2284 22.3315C62.4872 21.8645 62.3185 21.276 61.8514 21.0173C61.4625 20.8016 60.9905 20.8835 60.6936 21.1859C56.4562 8.60566 44.6238 0.00299072 31.1635 0.00299072C22.8394 0.00299072 15.0135 3.24451 9.12758 9.13057C3.24152 15.0166 0 22.8424 0 31.1665C0 38.2514 2.31725 44.9279 6.70102 50.474C10.9528 55.8532 16.9363 59.7303 23.5494 61.3911C24.9691 61.7477 26.4398 61.9685 28.0457 62.0661C28.0657 62.0672 28.0856 62.0679 28.1053 62.0679C28.6125 62.0679 29.0382 61.6728 29.0694 61.1597C29.1017 60.6267 28.6961 60.1686 28.163 60.1361C26.6779 60.0458 25.3228 59.8429 24.0204 59.5158C11.0161 56.2496 1.93362 44.5921 1.93362 31.1665C1.93362 15.0491 15.0461 1.93661 31.1635 1.93661C43.7494 1.93661 54.818 9.95455 58.824 21.693C58.4289 21.6234 58.0163 21.8054 57.8109 22.1758C57.5521 22.6427 57.7208 23.2313 58.1877 23.49L59.9146 24.4473C59.966 24.478 60.3008 24.6702 60.7052 24.5409C61.0583 24.4283 61.2216 24.1483 61.2561 24.0856Z" fill="#D3CDBF"/>
<path d="M47.6088 10.0999L10.2256 47.4832C9.84799 47.8609 9.84799 48.473 10.2256 48.8506C10.4143 49.0393 10.6618 49.1336 10.9092 49.1336C11.1565 49.1336 11.404 49.0393 11.5928 48.8506L48.976 11.4673C49.3536 11.0896 49.3536 10.4775 48.976 10.0999C48.5985 9.72263 47.9863 9.72263 47.6088 10.0999Z" fill="#D3CDBF"/>
<path d="M12.3726 16.4347C8.40922 16.4347 7.06252 21.5936 9.15237 21.5936C9.68605 21.5936 10.1192 21.1611 10.1192 20.6268C10.1192 19.3842 11.1301 18.3735 12.3725 18.3735C14.4453 18.3735 15.4188 20.9578 13.8525 22.3262L8.51364 26.9912C7.84306 27.5772 8.25891 28.686 9.1498 28.686H15.5952C16.1291 28.686 16.562 28.2482 16.562 27.7141C16.562 27.1801 16.1291 26.7473 15.5952 26.7473H11.7349L15.1279 23.7862C18.0318 21.2519 16.2406 16.4347 12.3726 16.4347Z" fill="#46525E"/>
<path d="M26.2934 24.169H24.6869L24.6819 17.403C24.6814 16.8693 24.2487 16.4371 23.7151 16.4371C23.1814 16.4371 22.7483 16.8697 22.7483 17.4039V24.169H19.2802C19.3002 24.1115 20.8795 19.5765 20.8951 19.5177C21.2377 18.2134 19.4599 17.7485 19.0636 18.8907L17.0034 24.8237C16.7855 25.4515 17.2524 26.1076 17.9167 26.1076H22.748C22.7477 27.7631 22.665 28.0354 23.0324 28.4026C23.6406 29.0111 24.6868 28.575 24.6868 27.7165V26.1077H26.2932C26.8273 26.1077 27.26 25.675 27.26 25.1409C27.2602 24.5873 26.8148 24.169 26.2934 24.169Z" fill="#46525E"/>
<path d="M41.9992 32.3574C41.8232 32.0728 41.5124 31.8997 41.1778 31.8997H35.2568C34.7234 31.8997 34.291 32.332 34.291 32.8654C34.291 33.3989 34.7234 33.8312 35.2568 33.8312H39.6162L35.1624 42.7536C34.9242 43.2308 35.118 43.8108 35.5952 44.049C35.7338 44.1182 35.8808 44.1509 36.0257 44.1509C36.3802 44.1509 36.7216 43.955 36.8906 43.6164L42.0418 33.2969C42.1914 32.9973 42.1753 32.642 41.9992 32.3574Z" fill="#46525E"/>
<path d="M56.4998 27.325C54.8349 27.6277 53.6257 29.0775 53.6257 30.7695V33.9483C53.6257 35.6408 54.8361 37.0912 56.5013 37.3938L56.8878 37.4641C55.1262 46.9205 47.8706 54.4686 38.5699 56.658C38.3332 54.9227 36.8511 53.629 35.0998 53.629H30.9009C29.1497 53.629 27.6677 54.9224 27.4312 56.6575C26.7431 61.7036 30.6239 65.2263 34.8462 64.9848C51.118 64.0539 64.1367 50.999 64.9901 34.6901C65.2222 30.2526 61.3463 26.4438 56.4998 27.325Z" fill="#6C7A88"/>
<path d="M34.8463 64.9844C51.1181 64.0536 64.1367 50.9987 64.9901 34.6898C65.061 33.3344 64.7471 32.0387 64.141 30.9164C62.4901 31.2858 61.2208 32.7165 61.1282 34.4879C60.3765 48.8515 48.9828 60.3024 34.6255 61.1236C32.8561 61.2248 31.4338 62.5009 31.0703 64.1504C32.2051 64.7586 33.5082 65.061 34.8463 64.9844Z" fill="#596775"/>
</svg>
