<svg width="15" height="15" viewBox="0 0 15 15" fill="none" xmlns="http://www.w3.org/2000/svg">
<path d="M0.979004 1.36459C0.979004 1.20712 1.04156 1.0561 1.15291 0.944749C1.26426 0.833399 1.41528 0.770844 1.57275 0.770844H2.0145C2.76659 0.770844 3.21784 1.27672 3.47513 1.74697C3.64692 2.06047 3.77121 2.42384 3.86859 2.75318C3.89493 2.7511 3.92133 2.75004 3.94775 2.75001H13.842C14.4991 2.75001 14.9741 3.37859 14.7936 4.01114L13.3464 9.08493C13.2167 9.54002 12.9422 9.94044 12.5645 10.2256C12.1868 10.5107 11.7265 10.665 11.2533 10.6651H6.54442C6.06744 10.6651 5.60365 10.5085 5.22434 10.2193C4.84503 9.93008 4.57119 9.52431 4.44492 9.06434L3.84325 6.86984L2.84575 3.50684L2.84496 3.50051C2.72146 3.05164 2.60588 2.63126 2.4333 2.31776C2.26784 2.01297 2.13484 1.95834 2.0153 1.95834H1.57275C1.41528 1.95834 1.26426 1.89579 1.15291 1.78444C1.04156 1.67309 0.979004 1.52207 0.979004 1.36459ZM4.99513 6.58168L5.58967 8.75005C5.70842 9.17914 6.09871 9.47759 6.54442 9.47759H11.2533C11.4684 9.47759 11.6776 9.4075 11.8493 9.27794C12.021 9.14838 12.1458 8.9664 12.2048 8.75955L13.58 3.93751H4.21296L4.98405 6.53972L4.99513 6.58168Z" fill="#2F1AC4"/>
<path d="M7.70817 13.0417C7.70817 13.4616 7.54136 13.8643 7.24442 14.1613C6.94749 14.4582 6.54476 14.625 6.12484 14.625C5.70491 14.625 5.30218 14.4582 5.00525 14.1613C4.70832 13.8643 4.5415 13.4616 4.5415 13.0417C4.5415 12.6218 4.70832 12.219 5.00525 11.9221C5.30218 11.6252 5.70491 11.4583 6.12484 11.4583C6.54476 11.4583 6.94749 11.6252 7.24442 11.9221C7.54136 12.219 7.70817 12.6218 7.70817 13.0417ZM6.52067 13.0417C6.52067 12.9367 6.47897 12.836 6.40473 12.7618C6.3305 12.6875 6.22982 12.6458 6.12484 12.6458C6.01986 12.6458 5.91917 12.6875 5.84494 12.7618C5.77071 12.836 5.729 12.9367 5.729 13.0417C5.729 13.1467 5.77071 13.2473 5.84494 13.3216C5.91917 13.3958 6.01986 13.4375 6.12484 13.4375C6.22982 13.4375 6.3305 13.3958 6.40473 13.3216C6.47897 13.2473 6.52067 13.1467 6.52067 13.0417Z" fill="#2F1AC4"/>
<path d="M13.2497 13.0417C13.2497 13.4616 13.0829 13.8643 12.7859 14.1613C12.489 14.4582 12.0863 14.625 11.6663 14.625C11.2464 14.625 10.8437 14.4582 10.5468 14.1613C10.2498 13.8643 10.083 13.4616 10.083 13.0417C10.083 12.6218 10.2498 12.219 10.5468 11.9221C10.8437 11.6252 11.2464 11.4583 11.6663 11.4583C12.0863 11.4583 12.489 11.6252 12.7859 11.9221C13.0829 12.219 13.2497 12.6218 13.2497 13.0417ZM12.0622 13.0417C12.0622 12.9367 12.0205 12.836 11.9462 12.7618C11.872 12.6875 11.7713 12.6458 11.6663 12.6458C11.5614 12.6458 11.4607 12.6875 11.3864 12.7618C11.3122 12.836 11.2705 12.9367 11.2705 13.0417C11.2705 13.1467 11.3122 13.2473 11.3864 13.3216C11.4607 13.3958 11.5614 13.4375 11.6663 13.4375C11.7713 13.4375 11.872 13.3958 11.9462 13.3216C12.0205 13.2473 12.0622 13.1467 12.0622 13.0417Z" fill="#2F1AC4"/>
</svg>
