<svg width="95" height="67" viewBox="0 0 95 67" fill="none" xmlns="http://www.w3.org/2000/svg">
<g filter="url(#filter0_d_100_37)">
<path d="M5.09968 44.7253C5.49968 50.3253 8.93301 55.7253 10.5997 57.7253C11.0998 52.2253 23.5996 48.7253 26.0996 48.7253C28.0996 48.7253 41.9329 44.7253 48.5996 42.7253C57.9329 39.7253 79.0996 32.6254 89.0996 28.2254C92.5996 10.7254 83.0996 -0.774631 82.5996 1.22537C82.1996 2.82537 69.7663 7.55868 63.5996 9.72535C51.4329 14.2253 25.0996 23.5253 17.0996 24.7253C9.09961 25.9253 6.43299 28.892 6.09968 30.2253C5.59968 32.7253 4.69968 39.1253 5.09968 44.7253Z" fill="#3F509E" stroke="#3F509E"/>
<path d="M39.309 27.3463C38.905 27.2821 38.4876 27.2518 38.0566 27.2553C37.6228 27.25 37.2285 27.3053 36.8736 27.4214C36.3946 27.5782 36.048 27.8094 35.8338 28.1152C35.6285 28.4181 35.5868 28.7558 35.7087 29.1284C35.7958 29.3945 35.9658 29.5991 36.2189 29.7421C36.4779 29.8734 36.7829 29.9651 37.1338 30.0173C37.4907 30.0576 37.8595 30.0891 38.2401 30.1119C38.5677 30.1226 38.898 30.1569 39.2312 30.2148C39.5704 30.2609 39.8901 30.3527 40.1904 30.4901C40.4907 30.6276 40.7596 30.8342 40.9972 31.11C41.2318 31.3769 41.4246 31.741 41.5756 32.2023C41.741 32.7079 41.7648 33.2157 41.6469 33.7256C41.5349 34.2238 41.2801 34.6755 40.8823 35.0806C40.4846 35.4857 39.9442 35.8 39.2612 36.0235C38.8531 36.157 38.4394 36.2433 38.0201 36.2823C37.6096 36.3184 37.2068 36.3176 36.8115 36.28C36.4133 36.2336 36.0359 36.1607 35.6793 36.0613L35.975 34.6241C36.2401 34.7141 36.532 34.7806 36.8505 34.8237C37.169 34.8668 37.4877 34.8803 37.8066 34.8644C38.1254 34.8484 38.4135 34.7984 38.6707 34.7142C38.9457 34.6242 39.2017 34.4913 39.4388 34.3156C39.6819 34.128 39.8587 33.9032 39.9694 33.6411C40.0889 33.3761 40.0935 33.0751 39.9832 32.738C39.8932 32.463 39.7365 32.2541 39.513 32.1112C39.2983 31.9654 39.0391 31.8636 38.7355 31.8058C38.4289 31.7392 38.1059 31.6976 37.7666 31.681C37.4272 31.6643 37.0791 31.6359 36.7222 31.5955C36.3653 31.5552 36.016 31.478 35.6742 31.3639C35.3385 31.2381 35.037 31.052 34.7697 30.8055C34.5025 30.5591 34.2963 30.2141 34.1512 29.7706C33.977 29.2384 33.9503 28.7364 34.071 28.2649C34.1916 27.7933 34.4315 27.3711 34.7907 26.9982C35.1588 26.6225 35.6282 26.3314 36.199 26.125C36.882 25.9015 37.4906 25.7956 38.0248 25.8074C38.5649 25.8075 39.059 25.8618 39.507 25.9706L39.309 27.3463ZM46.5928 33.6687C46.0695 33.8399 45.5542 33.8858 45.047 33.8062C44.5486 33.7238 44.1041 33.5059 43.7135 33.1525C43.32 32.7902 43.0173 32.2853 42.8054 31.6378C42.5965 30.9991 42.5466 30.4115 42.6558 29.8749C42.771 29.3266 43.0008 28.8586 43.3453 28.4709C43.6987 28.0803 44.1282 27.8022 44.6338 27.6368C45.1749 27.4597 45.6459 27.4284 46.0467 27.5428C46.4534 27.6453 46.7963 27.8081 47.0755 28.031L47.0653 28.27L46.8721 27.1843L48.2426 26.7358L50.0843 32.3642L48.594 32.8518L48.1456 31.4813L48.4095 31.7927C48.4003 31.8546 48.3584 31.9665 48.2837 32.1284C48.215 32.2786 48.1107 32.4551 47.9709 32.658C47.831 32.8609 47.6484 33.0532 47.4231 33.2349C47.2067 33.4138 46.9299 33.5584 46.5928 33.6687ZM46.6048 32.3096C46.8797 32.2196 47.1122 32.0895 47.302 31.9194C47.4918 31.7492 47.6331 31.5508 47.7259 31.324C47.8186 31.0973 47.8598 30.8481 47.8495 30.5765L47.449 29.3524C47.3025 29.145 47.1219 28.9831 46.9071 28.8668C46.6894 28.7417 46.4492 28.668 46.1867 28.6459C45.933 28.6209 45.6686 28.6534 45.3937 28.7434C45.0832 28.845 44.824 29.0132 44.6161 29.2482C44.4171 29.4803 44.2813 29.7555 44.2087 30.0739C44.1449 30.3893 44.1697 30.72 44.2829 31.066C44.3932 31.4031 44.5731 31.683 44.8228 31.9057C45.0724 32.1284 45.3565 32.2761 45.6748 32.3487C45.9932 32.4213 46.3032 32.4082 46.6048 32.3096ZM48.7331 21.3166L50.2234 20.8289L53.6194 31.2074L52.1291 31.6951L48.7331 21.3166ZM58.3991 29.8055C57.7338 30.0232 57.124 30.0803 56.5697 29.9769C56.0154 29.8735 55.54 29.6362 55.1436 29.2651C54.7472 28.894 54.4532 28.4157 54.2617 27.8302C54.0788 27.2714 54.0553 26.7193 54.1911 26.174C54.324 25.6199 54.5865 25.1314 54.9784 24.7085C55.3763 24.2739 55.868 23.9608 56.4534 23.7692C57.2252 23.5167 57.9334 23.5354 58.5782 23.8252C59.229 24.1033 59.7721 24.6228 60.2077 25.3838L56.1711 28.3986L55.5509 27.6735L58.6899 25.247L58.4272 25.5245C58.2514 25.2874 58.0207 25.1075 57.7351 24.985C57.4465 24.8535 57.1071 24.8516 56.7168 24.9793C56.4064 25.0809 56.156 25.2463 55.9659 25.4755C55.7757 25.7046 55.6532 25.9755 55.5984 26.2881C55.5495 26.5888 55.5831 26.9166 55.6992 27.2715C55.8211 27.644 56.0024 27.9431 56.2432 28.1688C56.4811 28.3855 56.7533 28.5272 57.0599 28.5939C57.3636 28.6516 57.6795 28.6268 58.0078 28.5194C58.2384 28.4439 58.4427 28.3329 58.6206 28.1863C58.8073 28.0368 58.9765 27.8636 59.1281 27.6667L60.1681 28.549C59.9363 28.8311 59.6619 29.0878 59.3448 29.3193C59.0337 29.5389 58.7185 29.701 58.3991 29.8055Z" fill="#EEEFFB"/>
</g>
<defs>
<filter id="filter0_d_100_37" x="0.5" y="0.499939" width="93.8721" height="66.4728" filterUnits="userSpaceOnUse" color-interpolation-filters="sRGB">
<feFlood flood-opacity="0" result="BackgroundImageFix"/>
<feColorMatrix in="SourceAlpha" type="matrix" values="0 0 0 0 0 0 0 0 0 0 0 0 0 0 0 0 0 0 127 0" result="hardAlpha"/>
<feOffset dy="4"/>
<feGaussianBlur stdDeviation="2"/>
<feComposite in2="hardAlpha" operator="out"/>
<feColorMatrix type="matrix" values="0 0 0 0 0 0 0 0 0 0 0 0 0 0 0 0 0 0 0.25 0"/>
<feBlend mode="normal" in2="BackgroundImageFix" result="effect1_dropShadow_100_37"/>
<feBlend mode="normal" in="SourceGraphic" in2="effect1_dropShadow_100_37" result="shape"/>
</filter>
</defs>
</svg>
