<svg width="38" height="38" viewBox="0 0 38 38" fill="none" xmlns="http://www.w3.org/2000/svg">
<g filter="url(#filter0_d_100_44)">
<circle cx="19" cy="19" r="15" fill="#EEEFFB"/>
</g>
<path d="M10.979 14.3646C10.979 14.2071 11.0416 14.0561 11.1529 13.9447C11.2643 13.8334 11.4153 13.7708 11.5728 13.7708H12.0145C12.7666 13.7708 13.2178 14.2767 13.4751 14.747C13.6469 15.0605 13.7712 15.4238 13.8686 15.7532C13.8949 15.7511 13.9213 15.75 13.9478 15.75H23.842C24.4991 15.75 24.9741 16.3786 24.7936 17.0111L23.3464 22.0849C23.2167 22.54 22.9422 22.9404 22.5645 23.2256C22.1868 23.5107 21.7265 23.665 21.2533 23.6651H16.5444C16.0674 23.6651 15.6036 23.5085 15.2243 23.2193C14.845 22.9301 14.5712 22.5243 14.4449 22.0643L13.8433 19.8698L12.8458 16.5068L12.845 16.5005C12.7215 16.0516 12.6059 15.6313 12.4333 15.3178C12.2678 15.013 12.1348 14.9583 12.0153 14.9583H11.5728C11.4153 14.9583 11.2643 14.8958 11.1529 14.7844C11.0416 14.6731 10.979 14.5221 10.979 14.3646ZM14.9951 19.5817L15.5897 21.7501C15.7084 22.1791 16.0987 22.4776 16.5444 22.4776H21.2533C21.4684 22.4776 21.6776 22.4075 21.8493 22.2779C22.021 22.1484 22.1458 21.9664 22.2048 21.7596L23.58 16.9375H14.213L14.984 19.5397L14.9951 19.5817Z" fill="#2F1AC4"/>
<path d="M17.7082 26.0417C17.7082 26.4616 17.5414 26.8643 17.2444 27.1613C16.9475 27.4582 16.5448 27.625 16.1248 27.625C15.7049 27.625 15.3022 27.4582 15.0053 27.1613C14.7083 26.8643 14.5415 26.4616 14.5415 26.0417C14.5415 25.6218 14.7083 25.219 15.0053 24.9221C15.3022 24.6252 15.7049 24.4583 16.1248 24.4583C16.5448 24.4583 16.9475 24.6252 17.2444 24.9221C17.5414 25.219 17.7082 25.6218 17.7082 26.0417ZM16.5207 26.0417C16.5207 25.9367 16.479 25.836 16.4047 25.7618C16.3305 25.6875 16.2298 25.6458 16.1248 25.6458C16.0199 25.6458 15.9192 25.6875 15.8449 25.7618C15.7707 25.836 15.729 25.9367 15.729 26.0417C15.729 26.1467 15.7707 26.2473 15.8449 26.3216C15.9192 26.3958 16.0199 26.4375 16.1248 26.4375C16.2298 26.4375 16.3305 26.3958 16.4047 26.3216C16.479 26.2473 16.5207 26.1467 16.5207 26.0417Z" fill="#2F1AC4"/>
<path d="M23.2497 26.0417C23.2497 26.4616 23.0829 26.8643 22.7859 27.1613C22.489 27.4582 22.0863 27.625 21.6663 27.625C21.2464 27.625 20.8437 27.4582 20.5468 27.1613C20.2498 26.8643 20.083 26.4616 20.083 26.0417C20.083 25.6218 20.2498 25.219 20.5468 24.9221C20.8437 24.6252 21.2464 24.4583 21.6663 24.4583C22.0863 24.4583 22.489 24.6252 22.7859 24.9221C23.0829 25.219 23.2497 25.6218 23.2497 26.0417ZM22.0622 26.0417C22.0622 25.9367 22.0205 25.836 21.9462 25.7618C21.872 25.6875 21.7713 25.6458 21.6663 25.6458C21.5614 25.6458 21.4607 25.6875 21.3864 25.7618C21.3122 25.836 21.2705 25.9367 21.2705 26.0417C21.2705 26.1467 21.3122 26.2473 21.3864 26.3216C21.4607 26.3958 21.5614 26.4375 21.6663 26.4375C21.7713 26.4375 21.872 26.3958 21.9462 26.3216C22.0205 26.2473 22.0622 26.1467 22.0622 26.0417Z" fill="#2F1AC4"/>
<defs>
<filter id="filter0_d_100_44" x="0" y="0" width="38" height="38" filterUnits="userSpaceOnUse" color-interpolation-filters="sRGB">
<feFlood flood-opacity="0" result="BackgroundImageFix"/>
<feColorMatrix in="SourceAlpha" type="matrix" values="0 0 0 0 0 0 0 0 0 0 0 0 0 0 0 0 0 0 127 0" result="hardAlpha"/>
<feOffset/>
<feGaussianBlur stdDeviation="2"/>
<feColorMatrix type="matrix" values="0 0 0 0 0 0 0 0 0 0 0 0 0 0 0 0 0 0 0.05 0"/>
<feBlend mode="normal" in2="BackgroundImageFix" result="effect1_dropShadow_100_44"/>
<feBlend mode="normal" in="SourceGraphic" in2="effect1_dropShadow_100_44" result="shape"/>
</filter>
</defs>
</svg>
