<svg width="11" height="11" viewBox="0 0 11 11" fill="none" xmlns="http://www.w3.org/2000/svg">
<g clip-path="url(#clip0_100_211)">
<path d="M5.49984 8.7085C5.59049 8.7085 5.6791 8.68162 5.75447 8.63125C5.82985 8.58089 5.88859 8.50931 5.92328 8.42556C5.95797 8.34181 5.96705 8.24965 5.94936 8.16075C5.93168 8.07184 5.88803 7.99017 5.82393 7.92607C5.75983 7.86197 5.67816 7.81832 5.58925 7.80064C5.50035 7.78295 5.40819 7.79203 5.32444 7.82672C5.24069 7.86141 5.16911 7.92015 5.11875 7.99553C5.06838 8.0709 5.0415 8.15951 5.0415 8.25016C5.0415 8.37172 5.08979 8.4883 5.17575 8.57425C5.2617 8.66021 5.37828 8.7085 5.49984 8.7085ZM7.7915 8.7085C7.88215 8.7085 7.97077 8.68162 8.04614 8.63125C8.12151 8.58089 8.18026 8.50931 8.21495 8.42556C8.24964 8.34181 8.25872 8.24965 8.24103 8.16075C8.22335 8.07184 8.17969 7.99017 8.11559 7.92607C8.0515 7.86197 7.96983 7.81832 7.88092 7.80064C7.79201 7.78295 7.69986 7.79203 7.61611 7.82672C7.53236 7.86141 7.46078 7.92015 7.41041 7.99553C7.36005 8.0709 7.33317 8.15951 7.33317 8.25016C7.33317 8.37172 7.38146 8.4883 7.46741 8.57425C7.55337 8.66021 7.66995 8.7085 7.7915 8.7085ZM7.7915 6.87516C7.88215 6.87516 7.97077 6.84828 8.04614 6.79792C8.12151 6.74756 8.18026 6.67598 8.21495 6.59223C8.24964 6.50848 8.25872 6.41632 8.24103 6.32741C8.22335 6.23851 8.17969 6.15684 8.11559 6.09274C8.0515 6.02864 7.96983 5.98499 7.88092 5.9673C7.79201 5.94962 7.69986 5.95869 7.61611 5.99339C7.53236 6.02808 7.46078 6.08682 7.41041 6.16219C7.36005 6.23757 7.33317 6.32618 7.33317 6.41683C7.33317 6.53839 7.38146 6.65497 7.46741 6.74092C7.55337 6.82687 7.66995 6.87516 7.7915 6.87516ZM5.49984 6.87516C5.59049 6.87516 5.6791 6.84828 5.75447 6.79792C5.82985 6.74756 5.88859 6.67598 5.92328 6.59223C5.95797 6.50848 5.96705 6.41632 5.94936 6.32741C5.93168 6.23851 5.88803 6.15684 5.82393 6.09274C5.75983 6.02864 5.67816 5.98499 5.58925 5.9673C5.50035 5.94962 5.40819 5.95869 5.32444 5.99339C5.24069 6.02808 5.16911 6.08682 5.11875 6.16219C5.06838 6.23757 5.0415 6.32618 5.0415 6.41683C5.0415 6.53839 5.08979 6.65497 5.17575 6.74092C5.2617 6.82687 5.37828 6.87516 5.49984 6.87516ZM8.70817 1.37516H8.24984V0.916829C8.24984 0.795272 8.20155 0.678693 8.11559 0.592739C8.02964 0.506785 7.91306 0.458496 7.7915 0.458496C7.66995 0.458496 7.55337 0.506785 7.46741 0.592739C7.38146 0.678693 7.33317 0.795272 7.33317 0.916829V1.37516H3.6665V0.916829C3.6665 0.795272 3.61822 0.678693 3.53226 0.592739C3.44631 0.506785 3.32973 0.458496 3.20817 0.458496C3.08661 0.458496 2.97003 0.506785 2.88408 0.592739C2.79813 0.678693 2.74984 0.795272 2.74984 0.916829V1.37516H2.2915C1.92683 1.37516 1.57709 1.52003 1.31923 1.77789C1.06137 2.03575 0.916504 2.38549 0.916504 2.75016V9.16683C0.916504 9.5315 1.06137 9.88124 1.31923 10.1391C1.57709 10.397 1.92683 10.5418 2.2915 10.5418H8.70817C9.07284 10.5418 9.42258 10.397 9.68044 10.1391C9.9383 9.88124 10.0832 9.5315 10.0832 9.16683V2.75016C10.0832 2.38549 9.9383 2.03575 9.68044 1.77789C9.42258 1.52003 9.07284 1.37516 8.70817 1.37516ZM9.1665 9.16683C9.1665 9.28839 9.11822 9.40497 9.03226 9.49092C8.94631 9.57688 8.82973 9.62516 8.70817 9.62516H2.2915C2.16995 9.62516 2.05337 9.57688 1.96741 9.49092C1.88146 9.40497 1.83317 9.28839 1.83317 9.16683V5.04183H9.1665V9.16683ZM9.1665 4.12516H1.83317V2.75016C1.83317 2.62861 1.88146 2.51203 1.96741 2.42607C2.05337 2.34012 2.16995 2.29183 2.2915 2.29183H2.74984V2.75016C2.74984 2.87172 2.79813 2.9883 2.88408 3.07425C2.97003 3.16021 3.08661 3.2085 3.20817 3.2085C3.32973 3.2085 3.44631 3.16021 3.53226 3.07425C3.61822 2.9883 3.6665 2.87172 3.6665 2.75016V2.29183H7.33317V2.75016C7.33317 2.87172 7.38146 2.9883 7.46741 3.07425C7.55337 3.16021 7.66995 3.2085 7.7915 3.2085C7.91306 3.2085 8.02964 3.16021 8.11559 3.07425C8.20155 2.9883 8.24984 2.87172 8.24984 2.75016V2.29183H8.70817C8.82973 2.29183 8.94631 2.34012 9.03226 2.42607C9.11822 2.51203 9.1665 2.62861 9.1665 2.75016V4.12516ZM3.20817 6.87516C3.29882 6.87516 3.38743 6.84828 3.46281 6.79792C3.53818 6.74756 3.59693 6.67598 3.63162 6.59223C3.66631 6.50848 3.67538 6.41632 3.6577 6.32741C3.64001 6.23851 3.59636 6.15684 3.53226 6.09274C3.46816 6.02864 3.38649 5.98499 3.29759 5.9673C3.20868 5.94962 3.11652 5.95869 3.03277 5.99339C2.94902 6.02808 2.87744 6.08682 2.82708 6.16219C2.77672 6.23757 2.74984 6.32618 2.74984 6.41683C2.74984 6.53839 2.79813 6.65497 2.88408 6.74092C2.97003 6.82687 3.08661 6.87516 3.20817 6.87516ZM3.20817 8.7085C3.29882 8.7085 3.38743 8.68162 3.46281 8.63125C3.53818 8.58089 3.59693 8.50931 3.63162 8.42556C3.66631 8.34181 3.67538 8.24965 3.6577 8.16075C3.64001 8.07184 3.59636 7.99017 3.53226 7.92607C3.46816 7.86197 3.38649 7.81832 3.29759 7.80064C3.20868 7.78295 3.11652 7.79203 3.03277 7.82672C2.94902 7.86141 2.87744 7.92015 2.82708 7.99553C2.77672 8.0709 2.74984 8.15951 2.74984 8.25016C2.74984 8.37172 2.79813 8.4883 2.88408 8.57425C2.97003 8.66021 3.08661 8.7085 3.20817 8.7085Z" fill="#FFA454"/>
</g>
<defs>
<clipPath id="clip0_100_211">
<rect width="11" height="11" fill="white"/>
</clipPath>
</defs>
</svg>
